HIERARCHY
ROOT hip
{
	OFFSET 0.000000 0.000000 0.000000 
	CHANNELS 6 Xposition Yposition Zposition Xrotation Zrotation Yrotation
	JOINT abdomen
	{
		OFFSET 0.000000 3.402643 0.000000 
		CHANNELS 3 Xrotation Zrotation Yrotation
		JOINT chest
		{
			OFFSET 0.000000 8.438565 -0.680529 
			CHANNELS 3 Xrotation Zrotation Yrotation
			JOINT neck
			{
				OFFSET 0.000000 10.207942 -0.272212 
				CHANNELS 3 Xrotation Zrotation Yrotation
				JOINT head
				{
					OFFSET 0.000000 3.130431 0.000000 
					CHANNELS 3 Xrotation Zrotation Yrotation
					End Site
					{
						OFFSET 0.000000 3.130435 0.000000 
					}
				}
			}
			JOINT lCollar
			{
				OFFSET 3.470700 6.669187 -0.816635 
				CHANNELS 3 Yrotation Zrotation Xrotation
				JOINT lShldr
				{
					OFFSET 3.198488 0.000000 0.000000 
					CHANNELS 3 Zrotation Yrotation Xrotation
					JOINT lForeArm
					{
						OFFSET 10.139888 0.000000 0.000000 
						CHANNELS 3 Yrotation Zrotation Xrotation
						JOINT lHand
						{
							OFFSET 8.370511 0.000000 0.000000 
							CHANNELS 3 Zrotation Yrotation Xrotation
							End Site
							{
								OFFSET 4.083176 0.000000 0.000000 
							}
						}
					}
				}
			}
			JOINT rCollar
			{
				OFFSET -3.470700 6.669187 -0.816635 
				CHANNELS 3 Yrotation Zrotation Xrotation
				JOINT rShldr
				{
					OFFSET -3.198488 0.000000 0.000000 
					CHANNELS 3 Zrotation Yrotation Xrotation
					JOINT rForeArm
					{
						OFFSET -10.139888 0.000000 0.000000 
						CHANNELS 3 Yrotation Zrotation Xrotation
						JOINT rHand
						{
							OFFSET -8.370511 0.000000 0.000000 
							CHANNELS 3 Zrotation Yrotation Xrotation
							End Site
							{
								OFFSET -4.083176 0.000000 0.000000 
							}
						}
					}
				}
			}
		}
	}
	JOINT lThigh
	{
		OFFSET 5.308129 -1.633274 1.361059 
		CHANNELS 3 Xrotation Zrotation Yrotation
		JOINT lShin
		{
			OFFSET -2.041588 -20.007561 0.000000 
			CHANNELS 3 Xrotation Zrotation Yrotation
			JOINT lFoot
			{
				OFFSET 0.000000 -19.190928 -1.224953 
				CHANNELS 3 Xrotation Yrotation Zrotation
				End Site
				{
					OFFSET 0.000000 -2.449906 4.627600 
				}
			}
		}
	}
	JOINT rThigh
	{
		OFFSET -5.308129 -1.633274 1.361059 
		CHANNELS 3 Xrotation Zrotation Yrotation
		JOINT rShin
		{
			OFFSET 2.041588 -20.007561 0.000000 
			CHANNELS 3 Xrotation Zrotation Yrotation
			JOINT rFoot
			{
				OFFSET 0.000000 -19.190928 -1.224953 
				CHANNELS 3 Xrotation Yrotation Zrotation
				End Site
				{
					OFFSET 0.000000 -2.449906 4.627600 
				}
			}
		}
	}
}
MOTION
Frames: 20
Frame Time: 0.033333
0.604561 45.581577 0.080295 0.567370 3.339680 89.496452 0.000000 0.000000 0.000000 19.532970 -0.745497 5.497146 19.746029 -3.475913 -0.333503 -25.573496 7.794125 6.937061 -5.741087 0.996653 25.000000 -72.990715 -7.226466 -10.622808 -52.561520 -3.524576 81.161591 -15.920495 -5.554894 -56.714283 -10.033755 5.885350 25.000000 48.160198 16.140631 56.985497 47.419376 -42.031036 39.288628 36.103062 -5.311527 -81.040642 10.276686 -1.871881 16.308109 22.693401 11.447447 1.925713 -1.067493 -14.577580 5.136069 11.671358 2.040361 1.528538 23.059191 -6.413035 -0.352264 10.063372 -0.287036 19.668465 
1.307028 45.715656 0.161093 0.333207 4.814373 89.413452 0.000000 0.000000 0.000000 19.356405 -0.552820 5.547900 19.907236 -3.673322 -0.352719 -25.620684 8.083069 7.154553 -4.668669 -0.031337 24.847118 -72.068512 -5.179690 -11.249504 -50.492306 -4.084484 80.338722 -15.778510 -5.666465 -56.744991 -10.674675 6.453279 25.000000 48.270191 13.658660 57.449036 47.497475 -41.545532 39.538227 36.479202 -4.447632 -81.075485 13.172414 -1.473720 16.292088 22.115759 11.324535 1.915662 -0.349026 -14.972635 4.905869 13.320660 2.490666 1.652720 24.435040 -6.603723 -0.308646 9.590436 -0.284119 20.930029 
2.019955 46.014362 0.192706 0.835801 6.708277 89.268028 0.000000 0.000000 0.000000 19.671396 -1.048324 5.416162 20.111324 -3.999522 -0.377858 -25.788406 8.473985 7.375921 -3.624780 -1.534091 24.696091 -70.530647 -3.232162 -12.209536 -48.032448 -4.914966 78.748299 -15.571445 -5.208495 -56.955173 -11.053576 7.265853 25.000000 47.697609 11.046861 57.536373 48.141800 -40.925583 40.322746 36.592064 -4.172880 -81.075409 16.683739 -1.853028 15.930071 21.071316 10.787794 1.866000 0.638980 -14.819902 4.270258 16.760134 1.727607 1.409976 23.211935 -6.133134 -0.292121 11.457291 0.206879 22.784466 
2.544651 46.363232 0.237684 1.252413 7.996161 89.159645 0.000000 0.000000 0.000000 19.733503 -1.489167 5.315430 20.311800 -4.165779 -0.382446 -26.030455 8.701493 7.423793 -2.864310 -2.547559 24.625111 -69.116982 -1.682370 -13.095177 -45.916740 -6.210644 77.129875 -15.389678 -4.380088 -57.261612 -11.425070 7.647195 25.000000 47.363480 9.324079 57.598213 48.750763 -40.159786 41.557186 36.591957 -4.163116 -81.055878 19.094635 -2.057614 15.645989 20.055040 10.035751 1.745050 2.071787 -14.635999 4.503197 19.515882 1.015173 1.175059 21.479219 -5.653558 -0.348258 12.585381 -0.267294 18.942307 
3.036131 46.868584 0.319829 1.175698 8.718895 89.183052 0.000000 0.000000 0.000000 19.137293 -1.457736 5.353509 20.702290 -4.116710 -0.388620 -26.056538 8.666317 7.343665 -2.368384 -2.952996 24.599728 -68.145599 -0.172914 -13.755933 -43.862263 -7.717804 76.810593 -15.403410 -3.569422 -57.484886 -12.056883 7.624374 25.000000 47.156723 7.743760 57.697353 49.507614 -38.780098 42.667202 36.952858 -4.442318 -81.063972 20.974863 -1.542331 15.642938 18.738453 9.206858 1.642579 5.894821 -15.490639 5.670711 21.354273 0.946970 1.155159 20.037603 -5.380954 -0.424524 15.755958 1.380852 20.725689 
3.352439 47.401470 0.357263 1.277066 9.441055 89.194260 0.000000 0.000000 0.000000 18.991953 -1.588301 5.342051 21.180063 -4.036332 -0.380527 -26.064417 8.551854 7.440069 -2.227570 -3.463297 24.574335 -67.473091 0.922058 -14.236459 -42.939541 -8.467045 77.614655 -15.593929 -3.459910 -57.451500 -12.316993 7.843287 25.000000 46.858761 6.725109 57.671173 49.703682 -37.895565 43.255207 37.292404 -4.555907 -81.093925 22.507059 -1.287906 15.561087 17.408609 8.386108 1.551577 9.028296 -16.208286 7.994655 22.749168 0.663666 1.059102 18.986103 -5.115547 -0.444222 18.622389 1.993513 20.408548 
3.662431 48.137505 0.390466 1.688830 10.571681 89.157700 0.000000 0.000000 0.000000 19.348989 -2.064055 5.212658 21.658037 -3.966609 -0.384508 -26.182133 8.442606 7.604512 -2.114168 -4.249403 24.540558 -66.674438 2.217695 -14.814207 -42.752445 -9.210195 78.723488 -15.828011 -3.723511 -57.258121 -12.439432 8.289207 25.000000 46.473469 5.946273 57.553532 49.578423 -37.142139 43.949699 37.613178 -4.738215 -81.125526 24.297436 -1.402586 15.308646 15.897726 7.515296 1.468572 13.330442 -16.231985 8.192468 24.563326 -0.078135 0.839971 17.635120 -4.687502 -0.483260 22.621115 2.013883 17.687449 
3.884090 48.710426 0.422934 1.890839 11.097620 89.095253 0.000000 0.000000 0.000000 19.312719 -2.276521 5.169118 21.747843 -4.023185 -0.387179 -26.173309 8.548870 7.514802 -1.732412 -4.533369 24.543962 -66.392647 3.187449 -15.088866 -43.162369 -9.963971 79.813232 -16.210535 -3.953870 -57.083042 -12.780085 8.160644 25.000000 46.619587 5.669940 57.661182 49.448822 -36.587818 44.425083 38.088963 -4.987596 -81.192848 25.183292 -1.463887 15.200816 14.820155 7.087532 1.429749 17.614241 -16.121622 8.414863 25.516205 -0.654305 0.674394 16.503315 -4.345962 -0.504896 26.060408 2.538111 15.348085 
4.042067 48.996647 0.450030 1.868361 10.687806 89.361526 0.000000 0.000000 0.000000 18.460373 -2.121361 5.248825 21.354229 -3.959995 -0.374748 -25.938196 8.385880 7.070181 -1.339544 -3.749234 24.577883 -67.199081 3.620971 -14.698861 -43.842487 -10.422583 80.722115 -16.847851 -3.939908 -56.985737 -13.861610 7.093787 25.000000 47.605473 5.686263 58.192295 49.543301 -35.971348 44.225220 37.971352 -5.828567 -81.214272 24.766098 -1.315220 15.297267 14.247245 7.128138 1.468862 21.434097 -17.051577 11.476331 25.375101 -0.839993 0.610241 15.544018 -3.993791 -0.483028 28.965122 2.842819 13.666796 
4.167470 49.218784 0.529654 1.679433 10.669350 89.393097 0.000000 0.000000 0.000000 18.184196 -1.902047 5.312555 20.788649 -4.051766 -0.380667 -25.736542 8.153466 6.898008 -0.769901 -3.098360 24.608665 -68.117538 3.765864 -14.220014 -44.298317 -10.244506 80.620369 -16.753483 -4.346692 -56.934479 -14.325176 6.492203 25.000000 48.345871 5.555048 58.608692 49.742241 -35.816795 44.062252 37.586792 -6.916320 -81.209808 24.608328 -0.849209 15.476875 14.074862 7.056900 1.467631 24.407885 -18.085722 14.388932 25.713964 -0.614843 0.670137 14.472878 -4.121078 -0.608396 33.085159 4.004247 15.034204 
4.230466 49.361507 0.623312 1.402836 11.022167 88.970085 0.000000 0.000000 0.000000 18.387617 -1.732993 5.341970 20.658112 -4.284409 -0.402678 -25.768919 8.280558 7.206952 -0.263378 -3.315558 24.612658 -68.245232 3.994675 -14.175475 -44.323997 -9.927532 79.384613 -15.627210 -5.044605 -56.989712 -13.648024 6.904327 25.000000 48.032593 5.403716 58.456596 49.942703 -35.914951 44.597424 37.422268 -6.839850 -81.175987 24.839766 -0.340424 15.619865 14.274896 6.863877 1.402074 25.503969 -18.296141 14.459557 26.323833 -0.292911 0.790503 13.791296 -4.404478 -0.736712 34.987953 4.918746 15.184859 
4.311219 49.454697 0.674573 1.636510 11.860532 88.696655 0.000000 0.000000 0.000000 19.075169 -2.049031 5.228896 20.918928 -4.482676 -0.419786 -25.756157 8.737875 7.479314 0.092403 -4.480968 24.604816 -67.043518 4.194396 -14.866547 -44.044807 -10.605227 77.663063 -14.315488 -5.205330 -57.263580 -13.198438 7.339898 25.000000 47.522415 5.584801 58.158638 50.418514 -36.182266 46.490932 38.239048 -5.562429 -81.229454 25.820652 -0.602379 15.411625 14.208245 6.845078 1.408165 25.700106 -18.027218 13.482922 27.512133 -0.713034 0.658836 13.318806 -4.111135 -0.707098 35.054813 4.956006 14.612678 
4.362160 49.386803 0.674802 2.000659 12.512140 88.705368 0.000000 0.000000 0.000000 19.676453 -2.418574 5.111977 21.175106 -4.523492 -0.423014 -25.656744 9.017362 7.471174 0.466945 -5.111007 24.619600 -66.423889 3.821073 -15.153092 -43.836861 -10.932743 77.299438 -14.095867 -4.834365 -57.425568 -13.216695 8.190398 25.000000 46.208481 5.543924 57.463657 51.752522 -36.325840 48.102249 39.113499 -5.076628 -81.310211 26.789721 -1.247323 15.059360 13.939709 6.998969 1.467926 24.823969 -17.375357 12.539966 28.516529 -1.191053 0.506860 13.081604 -3.731618 -0.632007 33.507900 4.059961 13.673476 
4.305222 49.059162 0.696079 1.890712 11.078100 88.850479 0.000000 0.000000 0.000000 18.051704 -2.265649 5.238185 21.472593 -4.319662 -0.407426 -25.928326 8.768959 7.497932 0.208354 -5.033598 24.606205 -66.644974 3.782063 -15.030600 -44.183758 -10.895731 77.502510 -14.335003 -4.746758 -57.437595 -13.403476 8.596315 25.000000 45.714237 5.570303 57.198452 52.100410 -36.450500 47.885399 39.152504 -5.125160 -81.316704 25.222515 -1.356488 15.219811 14.429304 7.468149 1.530511 22.921907 -17.115191 11.885254 27.154617 -0.898394 0.606233 13.365844 -3.729504 -0.620350 29.315357 2.599542 10.296556 
4.283318 48.724895 0.758696 1.580263 10.708910 88.956154 0.000000 0.000000 0.000000 17.618212 -1.973282 5.330226 21.626276 -4.217858 -0.399577 -26.320608 9.084505 7.556834 -0.219443 -4.965055 24.589050 -66.845680 3.529034 -14.885805 -44.357357 -10.677084 77.705048 -14.426970 -5.122062 -57.313362 -13.407068 9.656693 25.000000 44.580452 5.373297 56.628796 52.426495 -36.580219 46.567966 38.666523 -5.900541 -81.320435 25.075781 -0.985050 15.351874 14.782637 7.595943 1.544591 20.703768 -17.084103 11.253951 26.833439 -0.244300 0.803571 13.936024 -4.050422 -0.651022 26.562010 2.299234 10.783239 
4.299681 48.445965 0.847210 1.075491 11.287124 88.649689 0.000000 0.000000 0.000000 18.365665 -1.473682 5.399400 21.500702 -4.586123 -0.423780 -26.360189 10.175401 7.616424 0.137067 -5.134462 24.610260 -66.703651 3.007723 -14.898673 -44.618622 -10.727739 78.160706 -14.626488 -5.277050 -57.211231 -13.275265 10.639388 25.000000 43.240440 5.256290 55.958008 53.395660 -36.536674 46.553055 38.308708 -6.870455 -81.333084 26.333801 -0.496769 15.387710 14.615802 7.556543 1.545331 18.499155 -16.743769 9.875512 27.457632 0.419790 0.997284 14.497633 -4.325170 -0.669374 24.541494 2.899038 12.809804 
4.204514 47.996380 0.917819 0.696034 10.848827 88.569847 0.000000 0.000000 0.000000 17.991861 -1.123874 5.494290 21.902685 -4.585070 -0.425939 -26.933226 10.581780 7.490063 -0.566941 -4.957543 24.570145 -67.085564 2.893251 -14.671159 -45.717152 -10.579537 79.008667 -15.420803 -4.576837 -57.258720 -12.773754 11.879283 25.000000 41.799446 4.716672 55.281616 54.302223 -37.211685 46.560150 38.479935 -6.624805 -81.367218 26.335981 -0.262622 15.460259 14.555528 7.653377 1.564347 14.610895 -16.122183 8.855277 26.872198 0.771238 1.096493 15.306451 -4.217360 -0.568692 19.624578 2.408290 10.172771 
4.026363 47.698563 0.938422 0.675819 10.702397 88.603516 0.000000 0.000000 0.000000 18.149223 -1.280631 5.459043 22.271111 -4.155893 -0.395778 -27.709707 10.761155 7.763573 -1.324760 -5.322494 24.533081 -66.544083 2.721693 -14.942225 -46.727428 -11.022117 79.724472 -16.295332 -3.302429 -57.516148 -11.749574 13.697295 25.000000 39.727882 3.909305 54.342434 55.069885 -37.721607 45.939091 38.719814 -6.505588 -81.404274 26.336351 -0.272915 15.457051 14.499620 7.371559 1.511772 10.895834 -15.315279 9.358355 26.521212 0.702957 1.075969 15.804621 -4.041800 -0.497934 17.918060 2.489583 11.470344 
3.803371 47.336426 0.949416 0.596177 10.634204 88.559006 0.000000 0.000000 0.000000 18.726549 -1.405827 5.392531 22.212992 -3.849482 -0.374615 -28.160898 11.242736 8.334715 -1.468341 -5.660458 24.502941 -65.980934 1.906159 -15.149122 -47.585888 -11.270110 80.111359 -16.831831 -2.600368 -57.681385 -10.880351 15.836085 25.000000 36.929352 3.370499 53.059097 56.100910 -37.778358 45.310394 38.759491 -6.641985 -81.420540 26.638742 -0.282291 15.423187 13.959676 6.979761 1.456537 6.839107 -14.242410 10.373694 26.668528 0.995749 1.167109 15.542557 -4.315464 -0.560356 16.689466 2.847282 15.220887 
3.566393 46.977203 0.963579 0.397162 10.409912 88.421959 0.000000 0.000000 0.000000 19.185045 -1.328179 5.387427 22.094378 -3.810525 -0.367332 -28.658453 11.855045 8.833474 -1.665050 -5.876718 24.489977 -65.952065 1.116125 -15.065350 -48.360596 -10.578729 79.589188 -16.794500 -2.804143 -57.625488 -10.138879 17.440008 25.000000 34.852749 3.235088 52.113415 56.754597 -38.192329 45.486282 39.093334 -6.209630 -81.440735 26.784657 -0.282107 15.403082 13.244678 6.920153 1.483325 3.885994 -13.385943 10.648641 26.652067 1.571678 1.330265 15.041188 -4.792810 -0.722865 14.512955 2.420930 15.795594 
